  0
SECTION
  2
HEADER
  9
$ACADVER
  1
AC1015
  9
$INSBASE
 10
0.0
 20
0.0
 30
0.0
  9
$EXTMIN
 10
-10.0
 20
-15.0
 30
0.0
  9
$EXTMAX
 10
60.0
 20
50.0
 30
0.0
  0
ENDSEC
  0
SECTION
  2
TABLES
  0
TABLE
  2
LAYER
 70
7
  0
LAYER
  2
0
 70
0
 62
7
  6
CONTINUOUS
  0
LAYER
  2
WALLS
 70
0
 62
7
  6
CONTINUOUS
  0
LAYER
  2
DOORS
 70
0
 62
4
  6
CONTINUOUS
  0
LAYER
  2
WINDOWS
 70
0
 62
5
  6
CONTINUOUS
  0
LAYER
  2
DIMENSIONS
 70
0
 62
3
  6
CONTINUOUS
  0
LAYER
  2
TEXT
 70
0
 62
2
  6
CONTINUOUS
  0
LAYER
  2
FIXTURES
 70
0
 62
1
  6
CONTINUOUS
  0
ENDTAB
  0
ENDSEC
  0
SECTION
  2
ENTITIES
  0
LINE
  5
65
  8
WALLS
 62
7
 10
0
 20
0
 30
0.0
 11
50
 21
0
 31
0.0
  0
LINE
  5
66
  8
WALLS
 62
7
 10
50
 20
0
 30
0.0
 11
50
 21
40
 31
0.0
  0
LINE
  5
67
  8
WALLS
 62
7
 10
50
 20
40
 30
0.0
 11
0
 21
40
 31
0.0
  0
LINE
  5
68
  8
WALLS
 62
7
 10
0
 20
40
 30
0.0
 11
0
 21
0
 31
0.0
  0
LINE
  5
69
  8
WALLS
 62
7
 10
0
 20
15
 30
0.0
 11
16
 21
15
 31
0.0
  0
TEXT
  5
6A
  8
TEXT
 62
2
 10
8
 20
7.5
 30
0.0
 40
0.6
  1
LIVING ROOM
 72
1
 11
8
 21
7.5
 31
0.0
  0
TEXT
  5
6B
  8
TEXT
 62
2
 10
8
 20
6
 30
0.0
 40
0.4
  1
16' x 15'
 72
1
 11
8
 21
6
 31
0.0
  0
TEXT
  5
6C
  8
TEXT
 62
2
 10
8
 20
4.5
 30
0.0
 40
0.35
  1
240 sqft
 72
1
 11
8
 21
4.5
 31
0.0
  0
LINE
  5
6D
  8
WINDOWS
 62
5
 10
4
 20
-0.25
 30
0.0
 11
4
 21
0.25
 31
0.0
  0
LINE
  5
6E
  8
WINDOWS
 62
5
 10
12
 20
-0.25
 30
0.0
 11
12
 21
0.25
 31
0.0
  0
LINE
  5
6F
  8
WINDOWS
 62
5
 10
4
 20
0
 30
0.0
 11
12
 21
0
 31
0.0
  0
LINE
  5
70
  8
WINDOWS
 62
5
 10
4
 20
-0.15
 30
0.0
 11
12
 21
-0.15
 31
0.0
  0
LINE
  5
71
  8
WINDOWS
 62
5
 10
4
 20
0.15
 30
0.0
 11
12
 21
0.15
 31
0.0
  0
LINE
  5
72
  8
WALLS
 62
7
 10
16
 20
0
 30
0.0
 11
16
 21
10
 31
0.0
  0
TEXT
  5
73
  8
TEXT
 62
2
 10
34
 20
7.5
 30
0.0
 40
0.6
  1
KITCHEN
 72
1
 11
34
 21
7.5
 31
0.0
  0
TEXT
  5
74
  8
TEXT
 62
2
 10
34
 20
6
 30
0.0
 40
0.4
  1
18' x 15'
 72
1
 11
34
 21
6
 31
0.0
  0
TEXT
  5
75
  8
TEXT
 62
2
 10
34
 20
4.5
 30
0.0
 40
0.35
  1
270 sqft
 72
1
 11
34
 21
4.5
 31
0.0
  0
LINE
  5
76
  8
FIXTURES
 62
1
 10
27
 20
5
 30
0.0
 11
35
 21
5
 31
0.0
  0
LINE
  5
77
  8
FIXTURES
 62
1
 10
35
 20
5
 30
0.0
 11
35
 21
8
 31
0.0
  0
LINE
  5
78
  8
FIXTURES
 62
1
 10
35
 20
8
 30
0.0
 11
27
 21
8
 31
0.0
  0
LINE
  5
79
  8
FIXTURES
 62
1
 10
27
 20
8
 30
0.0
 11
27
 21
5
 31
0.0
  0
TEXT
  5
7A
  8
TEXT
 62
2
 10
31
 20
6.5
 30
0.0
 40
0.35
  1
ISLAND
 72
1
 11
31
 21
6.5
 31
0.0
  0
LINE
  5
7B
  8
FIXTURES
 62
1
 10
26
 20
11
 30
0.0
 11
29
 21
11
 31
0.0
  0
LINE
  5
7C
  8
FIXTURES
 62
1
 10
29
 20
11
 30
0.0
 11
29
 21
13
 31
0.0
  0
LINE
  5
7D
  8
FIXTURES
 62
1
 10
29
 20
13
 30
0.0
 11
26
 21
13
 31
0.0
  0
LINE
  5
7E
  8
FIXTURES
 62
1
 10
26
 20
13
 30
0.0
 11
26
 21
11
 31
0.0
  0
CIRCLE
  5
7F
  8
FIXTURES
 62
1
 10
27.5
 20
12
 30
0.0
 40
0.5
  0
TEXT
  5
80
  8
TEXT
 62
2
 10
27.5
 20
10.5
 30
0.0
 40
0.3
  1
SINK
 72
1
 11
27.5
 21
10.5
 31
0.0
  0
LINE
  5
81
  8
FIXTURES
 62
1
 10
30
 20
11
 30
0.0
 11
33
 21
11
 31
0.0
  0
LINE
  5
82
  8
FIXTURES
 62
1
 10
33
 20
11
 30
0.0
 11
33
 21
13
 31
0.0
  0
LINE
  5
83
  8
FIXTURES
 62
1
 10
33
 20
13
 30
0.0
 11
30
 21
13
 31
0.0
  0
LINE
  5
84
  8
FIXTURES
 62
1
 10
30
 20
13
 30
0.0
 11
30
 21
11
 31
0.0
  0
TEXT
  5
85
  8
TEXT
 62
2
 10
31.5
 20
12
 30
0.0
 40
0.3
  1
RANGE
 72
1
 11
31.5
 21
12
 31
0.0
  0
LINE
  5
86
  8
FIXTURES
 62
1
 10
34
 20
11
 30
0.0
 11
37
 21
11
 31
0.0
  0
LINE
  5
87
  8
FIXTURES
 62
1
 10
37
 20
11
 30
0.0
 11
37
 21
13.5
 31
0.0
  0
LINE
  5
88
  8
FIXTURES
 62
1
 10
37
 20
13.5
 30
0.0
 11
34
 21
13.5
 31
0.0
  0
LINE
  5
89
  8
FIXTURES
 62
1
 10
34
 20
13.5
 30
0.0
 11
34
 21
11
 31
0.0
  0
TEXT
  5
8A
  8
TEXT
 62
2
 10
35.5
 20
12.25
 30
0.0
 40
0.3
  1
REFRIG
 72
1
 11
35.5
 21
12.25
 31
0.0
  0
LINE
  5
8B
  8
WINDOWS
 62
5
 10
38
 20
-0.25
 30
0.0
 11
38
 21
0.25
 31
0.0
  0
LINE
  5
8C
  8
WINDOWS
 62
5
 10
44
 20
-0.25
 30
0.0
 11
44
 21
0.25
 31
0.0
  0
LINE
  5
8D
  8
WINDOWS
 62
5
 10
38
 20
0
 30
0.0
 11
44
 21
0
 31
0.0
  0
LINE
  5
8E
  8
WINDOWS
 62
5
 10
38
 20
-0.15
 30
0.0
 11
44
 21
-0.15
 31
0.0
  0
LINE
  5
8F
  8
WINDOWS
 62
5
 10
38
 20
0.15
 30
0.0
 11
44
 21
0.15
 31
0.0
  0
TEXT
  5
90
  8
TEXT
 62
2
 10
22
 20
12
 30
0.0
 40
0.5
  1
DINING
 72
1
 11
22
 21
12
 31
0.0
  0
TEXT
  5
91
  8
TEXT
 62
2
 10
22
 20
10.5
 30
0.0
 40
0.5
  1
AREA
 72
1
 11
22
 21
10.5
 31
0.0
  0
LINE
  5
92
  8
WALLS
 62
7
 10
16
 20
15
 30
0.0
 11
16
 21
40
 31
0.0
  0
LINE
  5
93
  8
WALLS
 62
7
 10
16
 20
15
 30
0.0
 11
50
 21
15
 31
0.0
  0
LINE
  5
94
  8
WALLS
 62
7
 10
0
 20
26
 30
0.0
 11
16
 21
26
 31
0.0
  0
TEXT
  5
95
  8
TEXT
 62
2
 10
8
 20
33
 30
0.0
 40
0.5
  1
MASTER BEDROOM
 72
1
 11
8
 21
33
 31
0.0
  0
TEXT
  5
96
  8
TEXT
 62
2
 10
8
 20
31.5
 30
0.0
 40
0.4
  1
16' x 14'
 72
1
 11
8
 21
31.5
 31
0.0
  0
TEXT
  5
97
  8
TEXT
 62
2
 10
8
 20
30
 30
0.0
 40
0.35
  1
224 sqft
 72
1
 11
8
 21
30
 31
0.0
  0
LINE
  5
98
  8
WINDOWS
 62
5
 10
3
 20
39.75
 30
0.0
 11
3
 21
40.25
 31
0.0
  0
LINE
  5
99
  8
WINDOWS
 62
5
 10
8
 20
39.75
 30
0.0
 11
8
 21
40.25
 31
0.0
  0
LINE
  5
9A
  8
WINDOWS
 62
5
 10
3
 20
40
 30
0.0
 11
8
 21
40
 31
0.0
  0
LINE
  5
9B
  8
WINDOWS
 62
5
 10
3
 20
39.85
 30
0.0
 11
8
 21
39.85
 31
0.0
  0
LINE
  5
9C
  8
WINDOWS
 62
5
 10
3
 20
40.15
 30
0.0
 11
8
 21
40.15
 31
0.0
  0
LINE
  5
9D
  8
WINDOWS
 62
5
 10
10
 20
39.75
 30
0.0
 11
10
 21
40.25
 31
0.0
  0
LINE
  5
9E
  8
WINDOWS
 62
5
 10
15
 20
39.75
 30
0.0
 11
15
 21
40.25
 31
0.0
  0
LINE
  5
9F
  8
WINDOWS
 62
5
 10
10
 20
40
 30
0.0
 11
15
 21
40
 31
0.0
  0
LINE
  5
A0
  8
WINDOWS
 62
5
 10
10
 20
39.85
 30
0.0
 11
15
 21
39.85
 31
0.0
  0
LINE
  5
A1
  8
WINDOWS
 62
5
 10
10
 20
40.15
 30
0.0
 11
15
 21
40.15
 31
0.0
  0
LINE
  5
A2
  8
WALLS
 62
7
 10
0
 20
21
 30
0.0
 11
6
 21
21
 31
0.0
  0
LINE
  5
A3
  8
WALLS
 62
7
 10
6
 20
21
 30
0.0
 11
6
 21
26
 31
0.0
  0
TEXT
  5
A4
  8
TEXT
 62
2
 10
3
 20
23.5
 30
0.0
 40
0.35
  1
W.I.C.
 72
1
 11
3
 21
23.5
 31
0.0
  0
LINE
  5
A5
  8
DOORS
 62
4
 10
6
 20
23
 30
0.0
 11
8.5
 21
23
 31
0.0
  0
ARC
  5
A6
  8
DOORS
 62
4
 10
8.5
 20
23
 30
0.0
 40
2.5
 50
90
 51
180
  0
LINE
  5
A7
  8
DOORS
 62
4
 10
8.5
 20
23
 30
0.0
 11
8.5
 21
25.5
 31
0.0
  0
LINE
  5
A8
  8
WALLS
 62
7
 10
6
 20
21
 30
0.0
 11
16
 21
21
 31
0.0
  0
TEXT
  5
A9
  8
TEXT
 62
2
 10
11
 20
18
 30
0.0
 40
0.4
  1
MASTER BATH
 72
1
 11
11
 21
18
 31
0.0
  0
TEXT
  5
AA
  8
TEXT
 62
2
 10
11
 20
16.5
 30
0.0
 40
0.35
  1
10' x 6'
 72
1
 11
11
 21
16.5
 31
0.0
  0
LINE
  5
AB
  8
FIXTURES
 62
1
 10
6.5
 20
15.5
 30
0.0
 11
8.0
 21
15.5
 31
0.0
  0
LINE
  5
AC
  8
FIXTURES
 62
1
 10
8.0
 20
15.5
 30
0.0
 11
8.0
 21
18.0
 31
0.0
  0
LINE
  5
AD
  8
FIXTURES
 62
1
 10
8.0
 20
18.0
 30
0.0
 11
6.5
 21
18.0
 31
0.0
  0
LINE
  5
AE
  8
FIXTURES
 62
1
 10
6.5
 20
18.0
 30
0.0
 11
6.5
 21
15.5
 31
0.0
  0
CIRCLE
  5
AF
  8
FIXTURES
 62
1
 10
7.25
 20
17
 30
0.0
 40
0.5
  0
LINE
  5
B0
  8
FIXTURES
 62
1
 10
9
 20
15.5
 30
0.0
 11
14
 21
15.5
 31
0.0
  0
LINE
  5
B1
  8
FIXTURES
 62
1
 10
14
 20
15.5
 30
0.0
 11
14
 21
17.5
 31
0.0
  0
LINE
  5
B2
  8
FIXTURES
 62
1
 10
14
 20
17.5
 30
0.0
 11
9
 21
17.5
 31
0.0
  0
LINE
  5
B3
  8
FIXTURES
 62
1
 10
9
 20
17.5
 30
0.0
 11
9
 21
15.5
 31
0.0
  0
CIRCLE
  5
B4
  8
FIXTURES
 62
1
 10
10.5
 20
16.5
 30
0.0
 40
0.4
  0
CIRCLE
  5
B5
  8
FIXTURES
 62
1
 10
12.5
 20
16.5
 30
0.0
 40
0.4
  0
LINE
  5
B6
  8
FIXTURES
 62
1
 10
15
 20
15.5
 30
0.0
 11
19
 21
15.5
 31
0.0
  0
LINE
  5
B7
  8
FIXTURES
 62
1
 10
19
 20
15.5
 30
0.0
 11
19
 21
19.5
 31
0.0
  0
LINE
  5
B8
  8
FIXTURES
 62
1
 10
19
 20
19.5
 30
0.0
 11
15
 21
19.5
 31
0.0
  0
LINE
  5
B9
  8
FIXTURES
 62
1
 10
15
 20
19.5
 30
0.0
 11
15
 21
15.5
 31
0.0
  0
TEXT
  5
BA
  8
TEXT
 62
2
 10
17
 20
17.5
 30
0.0
 40
0.3
  1
SHOWER
 72
1
 11
17
 21
17.5
 31
0.0
  0
LINE
  5
BB
  8
DOORS
 62
4
 10
7
 20
21
 30
0.0
 11
9.5
 21
21
 31
0.0
  0
ARC
  5
BC
  8
DOORS
 62
4
 10
7
 20
21
 30
0.0
 40
2.5
 50
0
 51
90
  0
LINE
  5
BD
  8
DOORS
 62
4
 10
7
 20
21
 30
0.0
 11
7
 21
23.5
 31
0.0
  0
LINE
  5
BE
  8
DOORS
 62
4
 10
13
 20
26
 30
0.0
 11
16
 21
26
 31
0.0
  0
ARC
  5
BF
  8
DOORS
 62
4
 10
16
 20
26
 30
0.0
 40
3
 50
90
 51
180
  0
LINE
  5
C0
  8
DOORS
 62
4
 10
16
 20
26
 30
0.0
 11
16
 21
29
 31
0.0
  0
LINE
  5
C1
  8
WALLS
 62
7
 10
16
 20
28
 30
0.0
 11
28
 21
28
 31
0.0
  0
LINE
  5
C2
  8
WALLS
 62
7
 10
28
 20
28
 30
0.0
 11
28
 21
40
 31
0.0
  0
TEXT
  5
C3
  8
TEXT
 62
2
 10
22
 20
34
 30
0.0
 40
0.5
  1
BEDROOM 2
 72
1
 11
22
 21
34
 31
0.0
  0
TEXT
  5
C4
  8
TEXT
 62
2
 10
22
 20
32.5
 30
0.0
 40
0.4
  1
12' x 12'
 72
1
 11
22
 21
32.5
 31
0.0
  0
TEXT
  5
C5
  8
TEXT
 62
2
 10
22
 20
31
 30
0.0
 40
0.35
  1
144 sqft
 72
1
 11
22
 21
31
 31
0.0
  0
LINE
  5
C6
  8
WINDOWS
 62
5
 10
19
 20
39.75
 30
0.0
 11
19
 21
40.25
 31
0.0
  0
LINE
  5
C7
  8
WINDOWS
 62
5
 10
25
 20
39.75
 30
0.0
 11
25
 21
40.25
 31
0.0
  0
LINE
  5
C8
  8
WINDOWS
 62
5
 10
19
 20
40
 30
0.0
 11
25
 21
40
 31
0.0
  0
LINE
  5
C9
  8
WINDOWS
 62
5
 10
19
 20
39.85
 30
0.0
 11
25
 21
39.85
 31
0.0
  0
LINE
  5
CA
  8
WINDOWS
 62
5
 10
19
 20
40.15
 30
0.0
 11
25
 21
40.15
 31
0.0
  0
LINE
  5
CB
  8
WALLS
 62
7
 10
16
 20
28
 30
0.0
 11
16
 21
33
 31
0.0
  0
LINE
  5
CC
  8
WALLS
 62
7
 10
16
 20
33
 30
0.0
 11
20
 21
33
 31
0.0
  0
LINE
  5
CD
  8
WALLS
 62
7
 10
20
 20
33
 30
0.0
 11
20
 21
28
 31
0.0
  0
TEXT
  5
CE
  8
TEXT
 62
2
 10
18
 20
30.5
 30
0.0
 40
0.3
  1
CL
 72
1
 11
18
 21
30.5
 31
0.0
  0
LINE
  5
CF
  8
DOORS
 62
4
 10
22
 20
28
 30
0.0
 11
24.5
 21
28
 31
0.0
  0
ARC
  5
D0
  8
DOORS
 62
4
 10
24.5
 20
28
 30
0.0
 40
2.5
 50
90
 51
180
  0
LINE
  5
D1
  8
DOORS
 62
4
 10
24.5
 20
28
 30
0.0
 11
24.5
 21
30.5
 31
0.0
  0
LINE
  5
D2
  8
WALLS
 62
7
 10
28
 20
28
 30
0.0
 11
40
 21
28
 31
0.0
  0
LINE
  5
D3
  8
WALLS
 62
7
 10
40
 20
28
 30
0.0
 11
40
 21
40
 31
0.0
  0
TEXT
  5
D4
  8
TEXT
 62
2
 10
34
 20
34
 30
0.0
 40
0.5
  1
BEDROOM 3
 72
1
 11
34
 21
34
 31
0.0
  0
TEXT
  5
D5
  8
TEXT
 62
2
 10
34
 20
32.5
 30
0.0
 40
0.4
  1
12' x 12'
 72
1
 11
34
 21
32.5
 31
0.0
  0
TEXT
  5
D6
  8
TEXT
 62
2
 10
34
 20
31
 30
0.0
 40
0.35
  1
144 sqft
 72
1
 11
34
 21
31
 31
0.0
  0
LINE
  5
D7
  8
WINDOWS
 62
5
 10
31
 20
39.75
 30
0.0
 11
31
 21
40.25
 31
0.0
  0
LINE
  5
D8
  8
WINDOWS
 62
5
 10
37
 20
39.75
 30
0.0
 11
37
 21
40.25
 31
0.0
  0
LINE
  5
D9
  8
WINDOWS
 62
5
 10
31
 20
40
 30
0.0
 11
37
 21
40
 31
0.0
  0
LINE
  5
DA
  8
WINDOWS
 62
5
 10
31
 20
39.85
 30
0.0
 11
37
 21
39.85
 31
0.0
  0
LINE
  5
DB
  8
WINDOWS
 62
5
 10
31
 20
40.15
 30
0.0
 11
37
 21
40.15
 31
0.0
  0
LINE
  5
DC
  8
WALLS
 62
7
 10
28
 20
28
 30
0.0
 11
28
 21
33
 31
0.0
  0
LINE
  5
DD
  8
WALLS
 62
7
 10
28
 20
33
 30
0.0
 11
32
 21
33
 31
0.0
  0
LINE
  5
DE
  8
WALLS
 62
7
 10
32
 20
33
 30
0.0
 11
32
 21
28
 31
0.0
  0
TEXT
  5
DF
  8
TEXT
 62
2
 10
30
 20
30.5
 30
0.0
 40
0.3
  1
CL
 72
1
 11
30
 21
30.5
 31
0.0
  0
LINE
  5
E0
  8
DOORS
 62
4
 10
34
 20
28
 30
0.0
 11
36.5
 21
28
 31
0.0
  0
ARC
  5
E1
  8
DOORS
 62
4
 10
36.5
 20
28
 30
0.0
 40
2.5
 50
90
 51
180
  0
LINE
  5
E2
  8
DOORS
 62
4
 10
36.5
 20
28
 30
0.0
 11
36.5
 21
30.5
 31
0.0
  0
LINE
  5
E3
  8
WALLS
 62
7
 10
40
 20
15
 30
0.0
 11
40
 21
28
 31
0.0
  0
LINE
  5
E4
  8
WALLS
 62
7
 10
40
 20
20
 30
0.0
 11
50
 21
20
 31
0.0
  0
TEXT
  5
E5
  8
TEXT
 62
2
 10
45
 20
24
 30
0.0
 40
0.4
  1
BATHROOM
 72
1
 11
45
 21
24
 31
0.0
  0
TEXT
  5
E6
  8
TEXT
 62
2
 10
45
 20
22.5
 30
0.0
 40
0.35
  1
10' x 8'
 72
1
 11
45
 21
22.5
 31
0.0
  0
LINE
  5
E7
  8
FIXTURES
 62
1
 10
40.5
 20
20.5
 30
0.0
 11
42.0
 21
20.5
 31
0.0
  0
LINE
  5
E8
  8
FIXTURES
 62
1
 10
42.0
 20
20.5
 30
0.0
 11
42.0
 21
23.0
 31
0.0
  0
LINE
  5
E9
  8
FIXTURES
 62
1
 10
42.0
 20
23.0
 30
0.0
 11
40.5
 21
23.0
 31
0.0
  0
LINE
  5
EA
  8
FIXTURES
 62
1
 10
40.5
 20
23.0
 30
0.0
 11
40.5
 21
20.5
 31
0.0
  0
CIRCLE
  5
EB
  8
FIXTURES
 62
1
 10
41.25
 20
22
 30
0.0
 40
0.5
  0
LINE
  5
EC
  8
FIXTURES
 62
1
 10
43
 20
20.5
 30
0.0
 11
45.5
 21
20.5
 31
0.0
  0
LINE
  5
ED
  8
FIXTURES
 62
1
 10
45.5
 20
20.5
 30
0.0
 11
45.5
 21
22.0
 31
0.0
  0
LINE
  5
EE
  8
FIXTURES
 62
1
 10
45.5
 20
22.0
 30
0.0
 11
43
 21
22.0
 31
0.0
  0
LINE
  5
EF
  8
FIXTURES
 62
1
 10
43
 20
22.0
 30
0.0
 11
43
 21
20.5
 31
0.0
  0
CIRCLE
  5
F0
  8
FIXTURES
 62
1
 10
44.25
 20
21.25
 30
0.0
 40
0.4
  0
LINE
  5
F1
  8
FIXTURES
 62
1
 10
40.5
 20
24
 30
0.0
 11
43.0
 21
24
 31
0.0
  0
LINE
  5
F2
  8
FIXTURES
 62
1
 10
43.0
 20
24
 30
0.0
 11
43.0
 21
29
 31
0.0
  0
LINE
  5
F3
  8
FIXTURES
 62
1
 10
43.0
 20
29
 30
0.0
 11
40.5
 21
29
 31
0.0
  0
LINE
  5
F4
  8
FIXTURES
 62
1
 10
40.5
 20
29
 30
0.0
 11
40.5
 21
24
 31
0.0
  0
TEXT
  5
F5
  8
TEXT
 62
2
 10
41.75
 20
26.5
 30
0.0
 40
0.3
  1
TUB
 72
1
 11
41.75
 21
26.5
 31
0.0
  0
LINE
  5
F6
  8
DOORS
 62
4
 10
42
 20
20
 30
0.0
 11
44.5
 21
20
 31
0.0
  0
ARC
  5
F7
  8
DOORS
 62
4
 10
44.5
 20
20
 30
0.0
 40
2.5
 50
90
 51
180
  0
LINE
  5
F8
  8
DOORS
 62
4
 10
44.5
 20
20
 30
0.0
 11
44.5
 21
22.5
 31
0.0
  0
TEXT
  5
F9
  8
TEXT
 62
2
 10
45
 20
17.5
 30
0.0
 40
0.4
  1
LAUNDRY
 72
1
 11
45
 21
17.5
 31
0.0
  0
TEXT
  5
FA
  8
TEXT
 62
2
 10
45
 20
16
 30
0.0
 40
0.35
  1
10' x 5'
 72
1
 11
45
 21
16
 31
0.0
  0
LINE
  5
FB
  8
FIXTURES
 62
1
 10
41
 20
15.5
 30
0.0
 11
44
 21
15.5
 31
0.0
  0
LINE
  5
FC
  8
FIXTURES
 62
1
 10
44
 20
15.5
 30
0.0
 11
44
 21
18.0
 31
0.0
  0
LINE
  5
FD
  8
FIXTURES
 62
1
 10
44
 20
18.0
 30
0.0
 11
41
 21
18.0
 31
0.0
  0
LINE
  5
FE
  8
FIXTURES
 62
1
 10
41
 20
18.0
 30
0.0
 11
41
 21
15.5
 31
0.0
  0
LINE
  5
FF
  8
FIXTURES
 62
1
 10
45
 20
15.5
 30
0.0
 11
48
 21
15.5
 31
0.0
  0
LINE
  5
100
  8
FIXTURES
 62
1
 10
48
 20
15.5
 30
0.0
 11
48
 21
18.0
 31
0.0
  0
LINE
  5
101
  8
FIXTURES
 62
1
 10
48
 20
18.0
 30
0.0
 11
45
 21
18.0
 31
0.0
  0
LINE
  5
102
  8
FIXTURES
 62
1
 10
45
 20
18.0
 30
0.0
 11
45
 21
15.5
 31
0.0
  0
LINE
  5
103
  8
WINDOWS
 62
5
 10
50
 20
29.75
 30
0.0
 11
50
 21
30.25
 31
0.0
  0
LINE
  5
104
  8
WINDOWS
 62
5
 10
56
 20
29.75
 30
0.0
 11
56
 21
30.25
 31
0.0
  0
LINE
  5
105
  8
WINDOWS
 62
5
 10
50
 20
30
 30
0.0
 11
56
 21
30
 31
0.0
  0
LINE
  5
106
  8
WINDOWS
 62
5
 10
50
 20
29.85
 30
0.0
 11
56
 21
29.85
 31
0.0
  0
LINE
  5
107
  8
WINDOWS
 62
5
 10
50
 20
30.15
 30
0.0
 11
56
 21
30.15
 31
0.0
  0
LINE
  5
108
  8
DOORS
 62
4
 10
16
 20
0
 30
0.0
 11
19
 21
0
 31
0.0
  0
ARC
  5
109
  8
DOORS
 62
4
 10
16
 20
0
 30
0.0
 40
3
 50
0
 51
90
  0
LINE
  5
10A
  8
DOORS
 62
4
 10
16
 20
0
 30
0.0
 11
16
 21
3
 31
0.0
  0
TEXT
  5
10B
  8
TEXT
 62
2
 10
17.5
 20
-1.5
 30
0.0
 40
0.4
  1
ENTRY
 72
1
 11
17.5
 21
-1.5
 31
0.0
  0
LINE
  5
10C
  8
DIMENSIONS
 62
3
 10
0
 20
0
 30
0.0
 11
0
 21
-3
 31
0.0
  0
LINE
  5
10D
  8
DIMENSIONS
 62
3
 10
50
 20
0
 30
0.0
 11
50
 21
-3
 31
0.0
  0
LINE
  5
10E
  8
DIMENSIONS
 62
3
 10
0
 20
-3
 30
0.0
 11
50
 21
-3
 31
0.0
  0
TEXT
  5
10F
  8
DIMENSIONS
 62
3
 10
25.0
 20
-2.5
 30
0.0
 40
0.4
  1
50'
 72
1
 11
25.0
 21
-2.5
 31
0.0
  0
LINE
  5
110
  8
DIMENSIONS
 62
3
 10
0
 20
0
 30
0.0
 11
-3
 21
0
 31
0.0
  0
LINE
  5
111
  8
DIMENSIONS
 62
3
 10
0
 20
40
 30
0.0
 11
-3
 21
40
 31
0.0
  0
LINE
  5
112
  8
DIMENSIONS
 62
3
 10
-3
 20
0
 30
0.0
 11
-3
 21
40
 31
0.0
  0
TEXT
  5
113
  8
DIMENSIONS
 62
3
 10
-2.5
 20
20.0
 30
0.0
 40
0.4
  1
40'
 72
1
 11
-2.5
 21
20.0
 31
0.0
  0
TEXT
  5
114
  8
TEXT
 62
2
 10
25
 20
-6
 30
0.0
 40
1.0
  1
3-BEDROOM HOUSE PLAN
 72
1
 11
25
 21
-6
 31
0.0
  0
TEXT
  5
115
  8
TEXT
 62
2
 10
25
 20
-8
 30
0.0
 40
0.5
  1
2000 SQFT - OPEN KITCHEN - MASTER SUITE
 72
1
 11
25
 21
-8
 31
0.0
  0
TEXT
  5
116
  8
TEXT
 62
2
 10
25
 20
-9.5
 30
0.0
 40
0.4
  1
SCALE: 1" = 10'
 72
1
 11
25
 21
-9.5
 31
0.0
  0
ENDSEC
  0
EOF